<svg width="512" height="512" viewBox="0 0 512 512" fill="none" xmlns="http://www.w3.org/2000/svg">
<g clip-path="url(#clip0_26_2)">
<path d="M110.934 0.000221236H401.067C415.643 -0.0289004 430.081 2.8206 443.554 8.3852C457.026 13.9498 469.267 22.12 479.574 32.4269C489.88 42.7338 498.051 54.9746 503.615 68.4468C509.18 81.919 512.029 96.3574 512 110.934V401.067C512.029 415.643 509.18 430.081 503.615 443.554C498.051 457.026 489.88 469.267 479.574 479.574C469.267 489.88 457.026 498.051 443.554 503.615C430.081 509.18 415.643 512.029 401.067 512H110.934C96.3574 512.029 81.919 509.18 68.4468 503.615C54.9746 498.051 42.7338 489.88 32.4269 479.574C22.12 469.267 13.9498 457.026 8.3852 443.554C2.8206 430.081 -0.0289004 415.643 0.000221236 401.067V110.934C-0.0289174 96.3574 2.82057 81.919 8.38517 68.4467C13.9498 54.9745 22.1199 42.7338 32.4269 32.4269C42.7338 22.1199 54.9745 13.9498 68.4467 8.38517C81.919 2.82057 96.3574 -0.0289174 110.934 0.000221236Z" fill="url(#paint0_linear_26_2)"/>
<path d="M256 477.867C378.534 477.867 477.867 378.534 477.867 256C477.867 133.466 378.534 34.1333 256 34.1333C133.466 34.1333 34.1333 133.466 34.1333 256C34.1333 378.534 133.466 477.867 256 477.867Z" fill="#2E2E2F"/>
<path fill-rule="evenodd" clip-rule="evenodd" d="M251.733 136.533H258.987L262.4 119.467H265.387L266.667 136.96C268.823 137.034 270.966 137.32 273.067 137.813L278.187 121.173L281.173 121.6L280.32 139.093C282.502 139.462 284.644 140.033 286.72 140.8L293.547 125.013L296.107 125.867L293.12 142.933C295.253 143.787 297.387 144.213 299.52 145.067L308.053 130.133L310.613 131.413L305.92 148.053C308.053 148.907 309.76 150.187 311.893 151.04L322.133 136.96L324.693 138.24L317.867 154.453C319.573 155.733 321.707 157.013 323.413 158.293L335.36 145.493L337.493 147.2L328.96 162.56C330.667 163.84 332.373 165.547 334.08 166.827L347.307 155.733L349.44 157.867L339.2 171.947L343.893 176.64L358.4 167.253L360.107 169.387L348.587 182.187L352.427 187.307L367.787 179.627L369.493 182.187L356.267 193.707C357.547 195.413 358.4 197.547 359.68 199.253L375.893 193.28L377.173 195.84L362.667 205.653L365.227 212.053L381.867 208.213L382.72 210.773L367.787 218.453C368.64 220.587 369.067 222.72 369.92 224.853L386.987 222.72L387.84 225.707L371.627 231.68C372.053 233.813 372.48 235.947 372.907 238.507H390.4L390.827 241.493L374.187 245.76C374.187 247.893 374.613 250.453 374.613 252.587L391.68 254.72V257.707L374.613 259.84C374.684 261.982 374.541 264.126 374.187 266.24L390.827 270.08L390.4 273.067L373.333 273.493L372.053 279.893L388.267 285.867L387.84 288.427L370.773 286.72C370.347 288.853 369.493 290.987 369.067 293.12L384.427 300.8L383.573 303.36L366.507 299.52L363.947 305.92L378.453 315.733L377.173 318.293L360.533 312.747C359.68 314.453 358.4 316.587 357.547 318.293L370.773 329.387L369.067 331.947L353.707 324.267C352.42 326.216 350.995 328.07 349.44 329.813L361.387 342.187L359.68 344.32L345.173 334.933C343.83 336.704 342.251 338.283 340.48 339.627L350.72 353.707L348.587 355.84L334.933 344.747C333.334 346.293 331.623 347.719 329.813 349.013L338.347 363.947L336.213 365.653L324.267 353.28C322.56 354.56 320.427 355.84 318.72 357.12L325.547 373.333L322.987 374.613L312.32 360.96C310.418 362.124 308.42 363.124 306.347 363.947L311.467 380.587L308.907 381.867L299.947 366.933C297.882 367.835 295.74 368.549 293.547 369.067L296.533 386.133L293.973 386.987L286.72 371.2C284.587 371.627 282.453 372.48 280.32 372.907L281.173 390.4L278.187 390.827L273.067 374.187C270.933 374.613 268.8 374.613 266.24 375.04L265.387 392.533H262.4L258.987 375.467H251.733L248.747 392.533H247.04L245.76 375.04C243.465 374.94 241.182 374.655 238.933 374.187L233.813 390.827L230.827 390.4L231.68 372.907C229.498 372.538 227.356 371.967 225.28 371.2L218.453 386.987L215.893 386.133L218.88 369.067C216.747 368.213 214.613 367.787 212.48 366.933L203.52 381.867L200.96 380.587L205.653 363.947C203.52 363.093 201.813 361.813 199.68 360.96L189.44 375.04L186.88 373.76L193.707 357.547C192 356.267 189.867 354.987 188.16 353.707L176.213 366.507L174.08 364.8L182.613 349.44C180.907 348.16 179.2 346.453 177.493 345.173L164.267 356.267L162.133 354.133L172.373 340.053C170.918 338.384 169.349 336.816 167.68 335.36L153.173 345.173L151.467 343.04L163.413 330.24C161.889 328.472 160.465 326.62 159.147 324.693L143.787 332.373L142.08 329.813L155.307 318.72C154.027 317.013 153.173 314.88 151.893 312.747L135.68 318.72L134.4 316.16L148.907 306.347L146.347 299.947L129.707 303.787L128.853 301.227L144.213 293.12C143.36 290.987 142.933 288.853 142.08 286.72L125.013 288.853L124.16 285.867L140.373 279.893C139.947 277.76 139.52 275.627 139.093 273.067H122.027L121.6 270.08L138.24 265.813C138.24 263.68 137.813 261.547 137.813 258.987L120.747 256.853V253.867L137.813 251.733C137.743 249.449 137.886 247.164 138.24 244.907L121.6 241.067L122.027 238.08L139.093 237.653L140.373 231.253L124.16 225.28L125.013 222.72L142.08 224.427C142.507 222.293 143.36 220.16 143.787 218.027L128.427 210.347L129.28 207.787L145.92 211.627L148.48 205.227L133.973 195.84L135.253 193.28L151.467 198.827C152.747 196.693 153.6 194.987 154.88 192.853L141.653 181.76L143.36 179.2L158.72 186.88C160 185.173 161.28 183.04 162.56 181.333L150.613 168.533L152.32 166.4L166.827 175.787C168.273 173.975 169.841 172.265 171.52 170.667L161.28 156.587L163.413 154.453L176.64 165.547C178.239 164 179.951 162.574 181.76 161.28L173.227 146.347L175.36 144.64L187.307 157.013C189.013 155.733 191.147 154.453 192.853 153.173L186.027 137.387L188.587 136.107L199.253 149.76C201.155 148.595 203.154 147.596 205.227 146.773L200.533 130.133L203.093 128.853L212.053 143.787C214.118 142.885 216.26 142.171 218.453 141.653L215.467 124.587L218.027 123.733L225.28 139.52C227.413 139.093 229.547 138.24 231.68 137.813L230.827 120.32L233.813 119.893L238.933 136.533C241.067 136.107 243.2 136.107 245.76 135.68L246.613 118.187H249.6L251.733 136.533ZM256 159.573C237.013 159.573 218.452 165.203 202.665 175.752C186.878 186.301 174.574 201.294 167.308 218.836C160.042 236.377 158.14 255.68 161.845 274.302C165.549 292.924 174.692 310.03 188.118 323.455C201.544 336.881 218.649 346.024 237.271 349.729C255.894 353.433 275.196 351.532 292.738 344.266C310.279 337 325.273 324.695 335.821 308.908C346.37 293.121 352 274.56 352 255.573C351.962 230.124 341.835 205.728 323.84 187.733C305.845 169.738 281.449 159.611 256 159.573Z" fill="url(#paint1_linear_26_2)"/>
<path fill-rule="evenodd" clip-rule="evenodd" d="M249.6 76.7999H259.84L264.533 51.1999H268.8L270.507 77.2266C273.92 77.6533 277.333 78.0799 280.32 78.5066L288 53.3333L292.267 54.1866L290.987 80.6399C294.4 81.4933 297.387 81.9199 300.373 82.7733L311.04 58.4533L315.307 59.7333L311.04 86.1866C314.095 87.1369 317.087 88.2769 320 89.5999L333.653 66.1333L337.493 67.8399L330.24 93.8666C333.227 95.1466 336.213 96.8533 338.773 98.1333L354.987 76.3733L358.827 78.5066L348.16 103.68C350.96 105.382 353.666 107.234 356.267 109.227L375.04 89.1733L378.453 91.7333L364.8 115.627C367.36 117.76 369.92 119.893 372.053 122.027L392.96 104.533L395.947 107.52L379.733 129.707C381.867 131.84 384 134.4 386.133 136.533L409.173 121.6L411.733 125.013L392.96 145.493C394.948 147.95 396.799 150.514 398.507 153.173L423.253 140.8L425.813 144.213L404.907 162.56C406.63 165.167 408.197 167.874 409.6 170.667L436.053 161.28L438.187 165.12L415.147 180.907C416.427 183.893 417.707 186.453 418.987 189.44L446.293 183.04L447.573 186.88L422.827 199.68L425.387 208.64L453.12 205.653L453.973 209.92L427.947 219.733C428.373 222.72 429.227 225.707 429.653 228.693H457.813L458.24 232.96L430.933 239.787C431.298 243.044 431.44 246.323 431.36 249.6L459.093 253.013V257.28L431.36 260.693C431.36 263.68 430.933 266.667 430.933 269.653L458.24 276.053L457.813 280.32L429.653 280.747C429.292 283.91 428.721 287.045 427.947 290.133L453.973 299.947L453.12 304.213L425.387 301.227L422.827 310.187L447.573 322.56L446.293 326.4L419.413 320.427C418.133 323.413 416.853 326.4 415.573 329.387L438.613 344.747L436.907 348.587L410.88 339.627C409.571 342.469 408 345.183 406.187 347.733L427.093 365.653L424.96 369.067L400.213 357.12C398.507 359.68 396.373 362.24 394.667 364.8L413.44 384.853L410.88 388.267L387.84 373.333C385.707 375.893 383.573 378.027 381.44 380.587L397.653 402.347L394.667 405.333L373.76 388.267C371.2 390.4 369.067 392.533 366.507 394.667L379.733 418.133L376.32 420.693L357.547 401.493C354.987 403.2 352.427 405.333 349.44 407.04L360.107 431.36L356.267 433.493L340.053 412.587C337.067 414.293 334.08 415.573 331.093 417.28L338.773 442.88L334.933 444.587L321.28 421.973C318.367 423.296 315.375 424.436 312.32 425.387L317.013 451.413L312.747 452.693L302.08 428.8C299.093 429.653 295.68 430.507 292.267 431.36L293.547 456.96L289.28 457.813L281.6 433.493L271.36 434.773L269.653 460.373L265.387 460.8L260.693 435.627H249.6L244.907 460.8L240.64 460.373L238.933 434.773C235.52 434.347 232.107 434.347 228.693 433.92L221.44 458.24L217.173 457.387L218.453 432.213C215.04 431.36 211.627 430.933 208.213 430.08L197.973 453.12L193.707 451.84L197.547 427.093C194.212 426.147 190.936 425.007 187.733 423.68L175.36 445.013L171.52 443.307L178.347 419.413C175.095 418.108 171.956 416.538 168.96 414.72L154.027 434.347L150.187 432.213L159.573 409.6C156.587 407.893 153.6 405.76 150.613 404.053L133.973 421.973L130.56 419.413L142.507 398.08C139.52 395.947 136.96 393.813 133.973 391.253L115.2 406.613L112.213 403.627L126.293 384L118.613 376.32L98.56 389.547L95.5734 386.133L111.787 368.213C109.653 365.227 107.52 362.667 105.387 359.68L84.0534 370.347L81.4934 366.933L99.4134 351.147C97.4075 348.113 95.5563 344.98 93.8667 341.76L71.2534 349.867L69.5467 346.027L89.1734 332.8C87.5704 329.465 86.1462 326.047 84.9067 322.56L61.8667 327.68L60.5867 323.84L81.4934 313.173C80.2134 309.76 79.36 306.347 78.08 302.507L54.6134 305.067L53.76 300.8L75.9467 292.693C75.0934 289.28 74.6667 285.44 73.8134 282.027H49.92L49.4934 277.76L72.5334 271.787C72.1067 268.373 72.1067 264.533 71.68 261.12L48.2134 258.133V253.867L71.68 250.88C71.68 247.04 72.1067 243.627 72.1067 239.787L49.0667 234.24L49.4934 229.973L73.3867 229.547C73.8134 226.133 74.6667 222.293 75.0934 218.88L52.9067 210.773L53.76 206.507L77.2267 209.067C78.08 205.653 79.36 202.24 80.2134 198.4L58.88 187.733L60.5867 183.893L83.6267 189.013C84.9067 185.6 86.6134 182.187 87.8934 179.2L67.84 165.973L69.5467 162.133L92.16 170.24C93.8496 167.02 95.7008 163.887 97.7067 160.853L79.36 145.493L81.4934 142.08L103.253 152.747C105.387 149.76 107.52 146.773 109.653 144.213L93.0134 126.293L95.5734 122.88L116.053 136.107C118.613 133.547 120.747 130.987 123.307 128.427L108.8 108.8L111.787 105.813L130.987 121.173C133.547 119.04 136.533 116.48 139.093 114.347L126.72 93.0133L130.133 90.4533L147.2 108.373C150.187 106.24 153.173 104.533 156.16 102.4L146.347 79.3599L150.187 77.2266L165.547 96.8533C168.533 95.1466 171.947 93.8666 174.933 92.1599L167.68 68.2666L171.52 66.5599L184.32 88.3199C187.522 86.9928 190.799 85.8531 194.133 84.9066L189.867 59.7333L194.133 58.4533L204.373 81.4933C207.597 80.5792 210.874 79.8667 214.187 79.3599L212.907 53.7599L217.173 52.9066L224.853 77.2266L235.093 75.9466L236.8 50.3466L241.067 49.9199L249.6 76.7999ZM145.493 370.347C157.013 381.44 175.787 376.747 183.893 362.667L229.973 281.6C234.349 273.745 236.575 264.875 236.425 255.885C236.275 246.895 233.755 238.104 229.12 230.4L181.76 150.187C173.653 136.533 154.88 131.84 143.36 143.36C128.189 158.177 116.172 175.911 108.033 195.493C99.894 215.076 95.801 236.103 96.0003 257.308C96.1996 278.514 100.687 299.46 109.193 318.886C117.698 338.313 130.046 355.817 145.493 370.347ZM243.627 221.44C248.332 229.232 254.965 235.68 262.887 240.164C270.808 244.648 279.751 247.016 288.853 247.04H381.867C398.08 247.04 411.307 233.387 407.467 217.6C402.276 196.86 392.933 177.387 380.003 160.36C367.073 143.333 350.824 129.105 332.239 118.537C313.654 107.968 293.118 101.278 271.874 98.8709C250.63 96.464 229.119 98.3903 208.64 104.533C193.28 109.227 187.733 127.573 195.84 141.653L243.627 221.44ZM289.28 264.533C280.236 264.562 271.355 266.936 263.503 271.423C255.651 275.91 249.096 282.357 244.48 290.133L198.4 371.2C196.38 374.404 195.126 378.031 194.736 381.799C194.346 385.566 194.831 389.373 196.152 392.923C197.473 396.473 199.595 399.671 202.353 402.267C205.11 404.864 208.43 406.789 212.053 407.893C232.424 413.55 253.723 415.065 274.69 412.349C295.656 409.633 315.866 402.741 334.123 392.081C352.381 381.421 368.316 367.209 380.987 350.284C393.657 333.36 402.807 314.067 407.893 293.547C411.733 278.187 398.507 264.107 382.293 264.107L289.28 264.533ZM253.867 247.467C252.179 247.467 250.529 247.967 249.126 248.905C247.723 249.842 246.629 251.175 245.983 252.734C245.337 254.294 245.168 256.009 245.497 257.665C245.827 259.32 246.639 260.84 247.833 262.034C249.026 263.227 250.547 264.04 252.202 264.369C253.857 264.699 255.573 264.53 257.132 263.884C258.692 263.238 260.024 262.144 260.962 260.741C261.9 259.337 262.4 257.688 262.4 256C262.393 253.739 261.492 251.572 259.893 249.973C258.294 248.374 256.128 247.473 253.867 247.467Z" fill="url(#paint2_linear_26_2)"/>
</g>
<defs>
<linearGradient id="paint0_linear_26_2" x1="256" y1="512" x2="256" y2="0.000244141" gradientUnits="userSpaceOnUse">
<stop stop-color="#8E8E93"/>
<stop offset="1" stop-color="#E5E5EA"/>
</linearGradient>
<linearGradient id="paint1_linear_26_2" x1="256.26" y1="119.313" x2="256.26" y2="392.38" gradientUnits="userSpaceOnUse">
<stop stop-color="#B4B4B9"/>
<stop offset="1" stop-color="#B4B4B9"/>
</linearGradient>
<linearGradient id="paint2_linear_26_2" x1="253.722" y1="51.0153" x2="253.722" y2="460.231" gradientUnits="userSpaceOnUse">
<stop stop-color="#DCDCE1"/>
<stop offset="1" stop-color="#98989D"/>
</linearGradient>
<clipPath id="clip0_26_2">
<rect width="512" height="512" fill="white"/>
</clipPath>
</defs>
</svg>
